<svg width="21" height="20" viewBox="0 0 21 20" fill="none" xmlns="http://www.w3.org/2000/svg">
<mask id="mask0_13_8345" style="mask-type:alpha" maskUnits="userSpaceOnUse" x="0" y="0" width="21" height="20">
<rect x="0.881104" width="20" height="20" fill="#D9D9D9"/>
</mask>
<g mask="url(#mask0_13_8345)">
<path d="M10.8825 17.9165C9.78748 17.9165 8.75824 17.7087 7.79477 17.2932C6.8313 16.8776 5.99324 16.3137 5.28061 15.6013C4.56797 14.8889 4.00373 14.0512 3.5879 13.0882C3.1722 12.1251 2.96436 11.0962 2.96436 10.0013C2.96436 8.9063 3.1722 7.87706 3.5879 6.91359C4.00345 5.95011 4.56748 5.11206 5.27998 4.39942C5.99248 3.68678 6.83033 3.12255 7.79352 2.70671C8.75672 2.29102 9.78588 2.08317 10.881 2.08317C11.4569 2.08317 12.0146 2.14088 12.5541 2.2563C13.0936 2.37171 13.6096 2.54053 14.1021 2.76275V4.16484C13.6266 3.90317 13.1181 3.69914 12.5764 3.55275C12.0348 3.40636 11.4696 3.33317 10.881 3.33317C9.0338 3.33317 7.46088 3.98248 6.16227 5.28109C4.86366 6.5797 4.21436 8.15261 4.21436 9.99984C4.21436 11.8471 4.86366 13.42 6.16227 14.7186C7.46088 16.0172 9.0338 16.6665 10.881 16.6665C12.7282 16.6665 14.3012 16.0172 15.5998 14.7186C16.8984 13.42 17.5477 11.8471 17.5477 9.99984C17.5477 9.57678 17.5079 9.16623 17.4283 8.76817C17.3487 8.37025 17.2379 7.98491 17.0958 7.61213H18.4387C18.5583 7.99352 18.648 8.38039 18.7079 8.77275C18.7678 9.16511 18.7977 9.57414 18.7977 9.99984C18.7977 11.095 18.5899 12.1241 18.1744 13.0873C17.7588 14.0505 17.1948 14.8884 16.4825 15.6009C15.7701 16.3134 14.9324 16.8774 13.9694 17.293C13.0063 17.7087 11.9773 17.9165 10.8825 17.9165ZM17.756 5.62484V3.95817H16.0894V2.70817H17.756V1.0415H19.006V2.70817H20.6727V3.95817H19.006V5.62484H17.756ZM13.7194 9.0063C14.0227 9.0063 14.2798 8.90012 14.4908 8.68775C14.7018 8.47553 14.8073 8.21782 14.8073 7.91463C14.8073 7.61143 14.7012 7.35435 14.4889 7.14338C14.2767 6.93227 14.0189 6.82671 13.7156 6.82671C13.4124 6.82671 13.1553 6.93289 12.9444 7.14525C12.7334 7.35748 12.6279 7.61518 12.6279 7.91838C12.6279 8.22157 12.734 8.47866 12.9462 8.68963C13.1585 8.90074 13.4162 9.0063 13.7194 9.0063ZM8.04644 9.0063C8.34963 9.0063 8.60672 8.90012 8.81769 8.68775C9.02866 8.47553 9.13415 8.21782 9.13415 7.91463C9.13415 7.61143 9.02804 7.35435 8.81581 7.14338C8.60359 6.93227 8.34588 6.82671 8.04269 6.82671C7.73936 6.82671 7.4822 6.93289 7.27123 7.14525C7.06026 7.35748 6.95477 7.61518 6.95477 7.91838C6.95477 8.22157 7.06088 8.47866 7.27311 8.68963C7.48533 8.90074 7.74311 9.0063 8.04644 9.0063ZM10.881 14.3267C11.7585 14.3267 12.5553 14.0834 13.2714 13.5967C13.9877 13.11 14.5167 12.4666 14.8585 11.6665H6.90352C7.24533 12.4666 7.77436 13.11 8.49061 13.5967C9.20672 14.0834 10.0035 14.3267 10.881 14.3267Z" fill="#5B5B5B"/>
</g>
</svg>
