<svg width="25" height="25" viewBox="0 0 25 25" fill="none" xmlns="http://www.w3.org/2000/svg">
<g clip-path="url(#clip0_14_18603)">
<path fill-rule="evenodd" clip-rule="evenodd" d="M19.8976 7.00218C19.6182 7.16268 19.2616 7.0664 19.1011 6.78702C18.9405 6.50765 19.0369 6.15107 19.3162 5.99052L21.4629 4.75115C21.7422 4.5906 22.0988 4.68693 22.2594 4.96631C22.4199 5.24563 22.3236 5.60226 22.0442 5.76281L19.8976 7.00218ZM17.6198 4.13948C17.458 4.41885 17.1003 4.51415 16.821 4.35234C16.5416 4.19052 16.4463 3.83292 16.6081 3.55354L17.8182 1.45767C17.98 1.17834 18.3376 1.08304 18.617 1.24481C18.8964 1.40662 18.9917 1.76427 18.8299 2.0436L17.6198 4.13948ZM20.6553 10.5639C20.3329 10.5639 20.0716 10.3026 20.0716 9.98029C20.0716 9.65798 20.3329 9.39665 20.6553 9.39665H23.0754C23.3977 9.39665 23.6591 9.65793 23.6591 9.98029C23.6591 10.3026 23.3977 10.5639 23.0754 10.5639H20.6553Z" fill="#FD5BA6"/>
<path fill-rule="evenodd" clip-rule="evenodd" d="M8.57539 16.187L5.70898 17.8419L8.39534 22.4948C8.85045 23.2831 9.86773 23.5557 10.656 23.1006C11.4443 22.6454 11.7169 21.6282 11.2617 20.8399L8.57539 16.187Z" fill="#2A93FC"/>
<path fill-rule="evenodd" clip-rule="evenodd" d="M8.57533 16.187L6.63672 17.3062L9.32308 21.9592C9.68453 22.5853 10.4007 22.886 11.075 22.7551C11.5255 22.2366 11.6231 21.466 11.2617 20.8399L8.57533 16.187Z" fill="#4EB1FC"/>
<path fill-rule="evenodd" clip-rule="evenodd" d="M11.3613 8.61431L14.7953 6.63168C15.886 6.00197 17.2936 6.37912 17.9233 7.46981C18.5529 8.5605 18.1758 9.96806 17.0851 10.5977L13.6511 12.5804L11.3613 8.61436V8.61431Z" fill="#FD5BA6"/>
<path fill-rule="evenodd" clip-rule="evenodd" d="M11.3589 8.61447L14.7929 6.6318C14.9741 6.52707 15.1688 6.44788 15.3717 6.39648L17.5759 10.2143C17.4299 10.3643 17.264 10.4933 17.0827 10.5978L13.6487 12.5805L11.3589 8.61447ZM6.63719 9.71819L10.332 16.1178L6.11748 18.551C4.35766 19.567 2.08637 18.9586 1.07031 17.1986C0.0542017 15.4387 0.66278 13.1675 2.42265 12.1514L6.63719 9.71819Z" fill="#FF3C98"/>
<path fill-rule="evenodd" clip-rule="evenodd" d="M6.63756 9.71729L9.73895 15.089C9.57516 15.1691 9.41415 15.2548 9.25619 15.3458L6.38978 17.0008C4.62995 18.0168 2.35872 17.4083 1.34261 15.6484C1.04423 15.1324 0.876335 14.5513 0.853516 13.9557C1.15206 13.2205 1.68667 12.5757 2.42298 12.1505L6.63756 9.71729Z" fill="#FD5BA6"/>
<path fill-rule="evenodd" clip-rule="evenodd" d="M12.5617 3.5458L18.6402 14.0741C18.8765 14.4835 18.8722 14.9543 18.6285 15.3593C18.3847 15.7643 17.9706 15.9884 17.4983 15.9712C14.9969 15.8797 11.9231 15.1998 8.98589 16.8956L5.29102 10.4959C8.2282 8.80012 9.17634 5.79815 10.3477 3.58616C10.569 3.16846 10.9702 2.92199 11.4427 2.91332C11.9154 2.90469 12.3253 3.13644 12.5617 3.5458Z" fill="#FDC72E"/>
<path fill-rule="evenodd" clip-rule="evenodd" d="M12.5616 3.54571L18.6401 14.074C18.6463 14.0847 18.6523 14.0954 18.6581 14.1061C18.4202 14.3214 18.1103 14.4342 17.7701 14.4218C15.2688 14.3302 12.195 13.6504 9.25777 15.3462L8.38294 15.8512L5.29102 10.4959C8.2282 8.80007 9.17634 5.7981 10.3477 3.58616C10.569 3.16841 10.9702 2.92194 11.4428 2.91332C11.9154 2.90469 12.3253 3.1364 12.5617 3.54576L12.5616 3.54571Z" fill="#FCDB35"/>
</g>
<defs>
<clipPath id="clip0_14_18603">
<rect width="24" height="24" fill="white" transform="translate(0.119141 0.242676)"/>
</clipPath>
</defs>
</svg>
