<svg width="21" height="22" viewBox="0 0 21 22" fill="none" xmlns="http://www.w3.org/2000/svg">
<mask id="mask0_13_8349" style="mask-type:alpha" maskUnits="userSpaceOnUse" x="0" y="0" width="21" height="22">
<rect x="0.881104" y="20.9404" width="20" height="20" transform="rotate(-89.6585 0.881104 20.9404)" fill="#D9D9D9"/>
</mask>
<g mask="url(#mask0_13_8349)">
<path d="M15.9219 14.1556C15.9133 15.6 15.399 16.8261 14.3791 17.834C13.3592 18.8418 12.127 19.3414 10.6826 19.3328C9.23819 19.3242 8.01206 18.8099 7.00424 17.79C5.99641 16.7701 5.4968 15.5379 5.50541 14.0935L5.55136 6.38532C5.55756 5.34367 5.92742 4.46044 6.66092 3.73564C7.39442 3.01083 8.28199 2.65153 9.32364 2.65774C10.3653 2.66395 11.2485 3.0338 11.9733 3.7673C12.6981 4.5008 13.0574 5.38838 13.0512 6.43003L13.0078 13.7216C13.004 14.3604 12.7785 14.9008 12.3314 15.3426C11.8843 15.7843 11.3414 16.0033 10.7025 15.9995C10.0636 15.9957 9.52326 15.7703 9.08148 15.3232C8.63969 14.8761 8.4207 14.3331 8.42451 13.6942L8.47045 5.98605L10.1371 5.99598L10.0911 13.7042C10.0901 13.8847 10.1482 14.0344 10.2656 14.1531C10.3829 14.2719 10.5319 14.3318 10.7124 14.3329C10.893 14.334 11.0426 14.2758 11.1614 14.1585C11.2801 14.0411 11.34 13.8922 11.3411 13.7116L11.3846 6.42009C11.3742 5.83668 11.1723 5.34242 10.7788 4.93729C10.3854 4.53216 9.89703 4.32785 9.31371 4.32438C8.73038 4.3209 8.23614 4.51935 7.83097 4.91972C7.42579 5.32009 7.22147 5.81193 7.21799 6.39526L7.17205 14.1035C7.15228 15.0895 7.48756 15.9283 8.1779 16.6199C8.86823 17.3115 9.70645 17.6603 10.6925 17.6662C11.6647 17.672 12.4932 17.3331 13.1778 16.6497C13.8625 15.9663 14.2216 15.1316 14.2553 14.1457L14.3037 6.02082L15.9703 6.03075L15.9219 14.1556Z" fill="#5B5B5B"/>
</g>
</svg>
