<svg width="51" height="50" viewBox="0 0 51 50" fill="none" xmlns="http://www.w3.org/2000/svg">
<rect x="0.5" width="50" height="50" rx="25" fill="#FFF6DC"/>
<g clip-path="url(#clip0_185_29201)">
<path d="M12.2618 20.1667C12.2202 20.1667 12.179 20.1586 12.1406 20.1426C12.1021 20.1267 12.0672 20.1033 12.0379 20.0739L8.59277 16.6286C8.53337 16.5692 8.5 16.4886 8.5 16.4046C8.5 16.3206 8.53337 16.2401 8.59277 16.1807C8.65217 16.1213 8.73273 16.0879 8.81674 16.0879C8.90074 16.0879 8.9813 16.1213 9.0407 16.1807L12.4858 19.6259C12.5301 19.6702 12.5602 19.7267 12.5725 19.7881C12.5847 19.8496 12.5784 19.9133 12.5544 19.9711C12.5305 20.029 12.4899 20.0785 12.4378 20.1133C12.3857 20.1481 12.3245 20.1667 12.2618 20.1667Z" fill="#FFB900"/>
<path d="M15.3731 15.4831C15.3315 15.4831 15.2903 15.475 15.2519 15.459C15.2134 15.4431 15.1785 15.4197 15.1491 15.3903L11.7039 11.945C11.6445 11.8856 11.6111 11.805 11.6111 11.721C11.6111 11.637 11.6445 11.5565 11.7039 11.4971C11.7633 11.4377 11.8438 11.4043 11.9278 11.4043C12.0118 11.4043 12.0924 11.4377 12.1518 11.4971L15.5971 14.9424C15.6414 14.9867 15.6715 15.0431 15.6838 15.1045C15.696 15.166 15.6897 15.2297 15.6657 15.2875C15.6418 15.3454 15.6012 15.3949 15.5491 15.4297C15.497 15.4645 15.4358 15.4831 15.3731 15.4831Z" fill="#FFB900"/>
<path d="M20.0562 12.3737C20.0146 12.3738 19.9734 12.3656 19.935 12.3497C19.8965 12.3337 19.8616 12.3104 19.8322 12.2809L16.387 8.83562C16.3575 8.80621 16.3342 8.7713 16.3183 8.73287C16.3024 8.69444 16.2942 8.65325 16.2942 8.61166C16.2942 8.57006 16.3024 8.52888 16.3183 8.49045C16.3342 8.45202 16.3575 8.4171 16.387 8.38769C16.4464 8.32829 16.5269 8.29492 16.6109 8.29492C16.6525 8.29492 16.6937 8.30311 16.7321 8.31903C16.7706 8.33495 16.8055 8.35828 16.8349 8.38769L20.2802 11.833C20.3245 11.8773 20.3546 11.9337 20.3669 11.9952C20.3791 12.0566 20.3728 12.1203 20.3488 12.1782C20.3249 12.2361 20.2843 12.2855 20.2322 12.3203C20.1801 12.3551 20.1189 12.3737 20.0562 12.3737Z" fill="#FFB900"/>
<path d="M42.1839 33.9128C42.1423 33.9128 42.1011 33.9047 42.0627 33.8887C42.0242 33.8728 41.9893 33.8494 41.9599 33.82L38.5146 30.3747C38.4552 30.3153 38.4219 30.2347 38.4219 30.1507C38.4219 30.0667 38.4552 29.9862 38.5146 29.9268C38.574 29.8674 38.6546 29.834 38.7386 29.834C38.8226 29.834 38.9032 29.8674 38.9626 29.9268L42.4079 33.372C42.4522 33.4163 42.4823 33.4728 42.4945 33.5342C42.5068 33.5957 42.5005 33.6593 42.4765 33.7172C42.4525 33.7751 42.4119 33.8246 42.3599 33.8594C42.3078 33.8942 42.2466 33.9128 42.1839 33.9128Z" fill="#FFB900"/>
<path d="M39.0728 38.5944C39.0312 38.5945 38.99 38.5863 38.9516 38.5704C38.9131 38.5544 38.8782 38.5311 38.8488 38.5016L35.4036 35.0563C35.3442 34.9969 35.3108 34.9164 35.3108 34.8324C35.3108 34.7484 35.3442 34.6678 35.4036 34.6084C35.463 34.549 35.5435 34.5156 35.6275 34.5156C35.7115 34.5156 35.7921 34.549 35.8515 34.6084L39.2968 38.0537C39.3411 38.098 39.3712 38.1544 39.3835 38.2159C39.3957 38.2773 39.3894 38.341 39.3654 38.3989C39.3415 38.4567 39.3009 38.5062 39.2488 38.541C39.1967 38.5758 39.1355 38.5944 39.0728 38.5944Z" fill="#FFB900"/>
<path d="M34.3895 41.7036C34.3479 41.7036 34.3067 41.6955 34.2683 41.6795C34.2298 41.6636 34.1949 41.6402 34.1655 41.6108L30.7205 38.1657C30.6611 38.1063 30.6277 38.0257 30.6277 37.9417C30.6277 37.8577 30.6611 37.7772 30.7205 37.7178C30.7799 37.6584 30.8604 37.625 30.9444 37.625C31.0284 37.625 31.109 37.6584 31.1684 37.7178L34.6135 41.1629C34.6578 41.2071 34.6879 41.2636 34.7002 41.325C34.7124 41.3865 34.7061 41.4502 34.6821 41.508C34.6582 41.5659 34.6176 41.6154 34.5655 41.6502C34.5134 41.685 34.4522 41.7036 34.3895 41.7036Z" fill="#FFB900"/>
<path d="M16.8106 33.2887C15.9387 32.4142 14.9794 31.6313 13.9479 30.9524C13.2038 30.4533 12.435 29.992 11.6444 29.5703C11.5848 29.7862 11.5408 30.0061 11.5129 30.2284C10.8548 34.2428 11.1837 37.4343 11.9077 38.1911C12.6645 38.9479 15.8893 39.2768 19.8705 38.586C20.1008 38.5531 20.3312 38.52 20.5285 38.4872L20.5289 38.4876C20.1321 37.6728 19.6699 36.8915 19.1469 36.1514C18.4512 35.1323 17.6696 34.1745 16.8106 33.2887Z" fill="#38C5FF"/>
<path d="M38.3303 11.7676C37.5734 11.0436 34.3818 10.7146 30.3677 11.3727C30.1454 11.4008 29.9254 11.4447 29.7095 11.5043C30.1312 12.2949 30.5925 13.0637 31.0916 13.8077C31.779 14.8331 32.5612 15.7915 33.4279 16.6705C34.3331 17.5672 35.3252 18.3718 36.3894 19.0724C37.0998 19.5688 37.8479 20.0089 38.6268 20.3886C38.6597 20.1911 38.6928 19.9609 38.7257 19.7305C39.4166 15.749 39.0877 12.5246 38.3308 11.7679L38.3303 11.7676Z" fill="#38C5FF"/>
<path d="M35.888 21.1303C35.6779 20.9957 35.4705 20.8588 35.2697 20.7175C34.1111 19.948 33.031 19.0663 32.0451 18.0852C31.0829 17.1148 30.2127 16.0573 29.4455 14.9263C29.2039 14.5703 28.9692 14.1966 28.7393 13.8168C28.3744 13.2137 28.0246 12.5907 27.7016 11.9648C26.0547 12.4214 24.4576 13.0418 22.9343 13.8168C21.0074 14.7882 19.2415 16.0502 17.6984 17.5587C14.8031 20.4871 13.0588 24.1395 12.1047 27.5618C13.1294 28.077 14.1187 28.6596 15.0663 29.3057C16.1972 30.0728 17.2546 30.943 18.2249 31.9052C18.9551 32.6415 19.63 33.4306 20.2442 34.2662C20.4296 34.5164 20.6128 34.7704 20.7916 35.0312C21.4499 35.9824 22.0329 36.9835 22.5355 38.0254C25.3515 37.2635 28.0029 35.9891 30.3569 34.2662C31.127 33.6956 31.8561 33.0717 32.5387 32.3988C33.8478 31.0656 34.9741 29.5645 35.888 27.9349C36.8702 26.1883 37.6351 24.3281 38.1654 22.3957C37.382 22.0193 36.6215 21.5967 35.888 21.1303Z" fill="#009DFF"/>
<path d="M20.601 29.5324C20.4992 29.529 20.4006 29.496 20.3173 29.4373C20.234 29.3787 20.1696 29.2971 20.1321 29.2024C20.0945 29.1077 20.0854 29.0042 20.1059 28.9044C20.1264 28.8046 20.1755 28.713 20.2473 28.6407L29.28 19.5528C29.3778 19.4544 29.5107 19.3989 29.6494 19.3984C29.7882 19.398 29.9214 19.4527 30.0199 19.5505C30.1183 19.6483 30.1738 19.7812 30.1742 19.92C30.1747 20.0587 30.12 20.192 30.0222 20.2904L20.9895 29.3783C20.9388 29.4293 20.8781 29.4693 20.8113 29.4958C20.7445 29.5223 20.6729 29.5348 20.601 29.5324Z" fill="#D9F3FF"/>
<path d="M29.6619 24.4354C29.5297 24.4312 29.4041 24.3769 29.3105 24.2837L25.2946 20.2923C25.1964 20.1944 25.141 20.0616 25.1406 19.9229C25.1403 19.7843 25.195 19.6512 25.2927 19.5528C25.3904 19.4545 25.5232 19.3989 25.6619 19.3984C25.8005 19.3979 25.9337 19.4525 26.0322 19.5501L30.048 23.5415C30.1226 23.6156 30.1731 23.7104 30.193 23.8136C30.2129 23.9168 30.2012 24.0236 30.1595 24.12C30.1178 24.2165 30.0481 24.2982 29.9593 24.3544C29.8705 24.4107 29.7669 24.4389 29.6619 24.4354Z" fill="#D9F3FF"/>
<path d="M27.1256 26.987C26.9935 26.9828 26.8679 26.9285 26.7742 26.8352L22.7583 22.8438C22.6606 22.7459 22.6057 22.6132 22.6055 22.4749C22.6054 22.3365 22.6601 22.2037 22.7576 22.1056C22.8551 22.0074 22.9876 21.9519 23.126 21.9512C23.2643 21.9505 23.3973 22.0046 23.4959 22.1017L27.5118 26.0931C27.5863 26.1671 27.6368 26.262 27.6567 26.3651C27.6766 26.4683 27.6649 26.5751 27.6232 26.6716C27.5816 26.7681 27.5118 26.8498 27.423 26.906C27.3343 26.9623 27.2306 26.9905 27.1256 26.987Z" fill="#D9F3FF"/>
<path d="M24.5907 29.5374C24.4586 29.5332 24.333 29.4789 24.2393 29.3856L20.2235 25.3942C20.1747 25.3458 20.136 25.2883 20.1095 25.2249C20.0831 25.1615 20.0693 25.0935 20.0691 25.0248C20.0689 24.9561 20.0822 24.888 20.1083 24.8245C20.1344 24.7609 20.1727 24.7031 20.2212 24.6544C20.2696 24.6057 20.3272 24.5669 20.3906 24.5404C20.4539 24.514 20.5219 24.5002 20.5906 24.5C20.6593 24.4998 20.7274 24.5131 20.791 24.5392C20.8545 24.5653 20.9123 24.6037 20.961 24.6521L24.9769 28.6435C25.0515 28.7175 25.102 28.8123 25.1218 28.9155C25.1417 29.0187 25.1301 29.1255 25.0884 29.222C25.0467 29.3185 24.9769 29.4001 24.8882 29.4564C24.7994 29.5127 24.6958 29.5409 24.5907 29.5374Z" fill="#D9F3FF"/>
<path d="M33.4231 16.672C32.5564 15.7931 31.7742 14.8346 31.0869 13.8093C30.5878 13.0652 30.1265 12.2964 29.7048 11.5059L27.6973 11.9663C28.0203 12.5922 28.3701 13.2152 28.735 13.8182C28.9649 14.198 29.1995 14.5717 29.4411 14.9278C30.2083 16.0587 31.0785 17.1162 32.0407 18.0867C33.0266 19.0678 34.1067 19.9495 35.2654 20.7189C35.4662 20.8603 35.6736 20.9972 35.8837 21.1318C36.6172 21.5982 37.3776 22.0207 38.1611 22.3972L38.622 20.3901C37.8431 20.0103 37.0951 19.5703 36.3847 19.0739C35.3204 18.3733 34.3284 17.5687 33.4231 16.672Z" fill="#D9F3FF"/>
<path d="M20.2388 34.2649C19.6246 33.4294 18.9497 32.6402 18.2196 31.9039C17.2492 30.9417 16.1918 30.0715 15.061 29.3044C14.1134 28.6583 13.124 28.0758 12.0994 27.5605L11.6384 29.5679C12.429 29.9896 13.1978 30.4509 13.9419 30.95C14.9734 31.6289 15.9327 32.4118 16.8047 33.2863C17.6637 34.1722 18.4453 35.1299 19.141 36.149C19.6639 36.889 20.126 37.6701 20.5227 38.4847L22.5302 38.0242C22.0276 36.9823 21.4445 35.9811 20.7863 35.0299C20.6075 34.7691 20.4243 34.5151 20.2388 34.2649Z" fill="#D9F3FF"/>
<g opacity="0.26">
<path d="M20.4671 34.5785C23.657 30.1605 25.3707 24.8482 25.3639 19.399C25.3643 17.2621 25.1017 15.1333 24.5822 13.0605C24.0306 13.293 23.4801 13.5397 22.935 13.8185C21.0081 14.7899 19.2422 16.0519 17.6991 17.5604C14.8037 20.4888 13.0595 24.1412 12.1054 27.5635C12.1202 27.5709 12.1344 27.579 12.149 27.5864C12.1328 27.5784 12.1168 27.5716 12.1007 27.5635L11.6397 29.5709L11.6438 29.5732C11.5845 29.7884 11.5408 30.0075 11.5128 30.2289C10.8549 34.2434 11.1837 37.4348 11.9077 38.1916C12.4341 38.7181 14.1565 39.0364 16.4954 38.9495C17.9791 37.6481 19.3108 36.1829 20.4649 34.5818C20.3896 34.4776 20.3162 34.3705 20.2401 34.2678C20.221 34.242 20.2031 34.2149 20.1842 34.1888C20.2041 34.2156 20.2249 34.241 20.2448 34.2679C20.3201 34.3695 20.3927 34.4755 20.4671 34.5785Z" fill="white"/>
</g>
</g>
<defs>
<clipPath id="clip0_185_29201">
<rect width="34" height="34" fill="white" transform="translate(8.5 8)"/>
</clipPath>
</defs>
</svg>
