<svg width="24" height="24" viewBox="0 0 24 24" fill="none" xmlns="http://www.w3.org/2000/svg">
<path fill-rule="evenodd" clip-rule="evenodd" d="M4.95633 6.38927C4.95799 6.38927 4.91653 6.42986 4.86429 6.47825C4.66361 6.66166 4.24816 7.04331 4.24397 7.84174C4.23738 8.9586 5.0177 11.0323 8.77502 14.5679C12.5149 18.0863 14.7149 18.8293 15.9041 18.8293H15.9215C16.7698 18.8254 17.1745 18.4336 17.3702 18.2455C17.4299 18.1877 17.478 18.1456 17.512 18.1191C18.3379 17.337 18.7608 16.7548 18.7567 16.3817C18.7509 16.0008 18.2475 15.5505 17.5518 14.9277C17.3304 14.7294 17.0899 14.514 16.8361 14.2752C16.1785 13.6578 15.8526 13.7632 15.1362 14.0005C14.1452 14.3275 12.7853 14.7724 10.6723 12.7829C8.55609 10.7927 9.02959 9.5143 9.37622 8.58163C9.62665 7.9073 9.74109 7.59979 9.08267 6.98009C8.82477 6.73815 8.59341 6.50869 8.38029 6.29796C7.7227 5.64704 7.24837 5.17641 6.84619 5.17095H6.83955C6.44234 5.17095 5.82538 5.57055 4.95219 6.3924C4.95467 6.39005 4.95633 6.38927 4.95633 6.38927ZM15.9049 20C13.8384 20 11.1442 18.4515 7.89601 15.396C4.63541 12.3279 2.9877 9.78434 3.00007 7.8355C3.0076 6.54771 3.7249 5.88821 3.99441 5.6408C4.0085 5.62441 4.0566 5.57992 4.07318 5.56431C5.26233 4.44433 6.06421 3.99165 6.86194 4.00012C7.78821 4.01194 8.44746 4.66442 9.28169 5.49095C9.48817 5.69543 9.71207 5.91787 9.96167 6.15201C11.1724 7.2915 10.8274 8.22105 10.5504 8.96719C10.2486 9.78122 9.98738 10.4837 11.5513 11.9556C13.117 13.4276 13.8633 13.1818 14.7249 12.8953C15.5185 12.6346 16.5036 12.3084 17.716 13.4479C17.9614 13.6789 18.1944 13.8873 18.4092 14.0801C19.2915 14.8691 19.9881 15.4927 19.9999 16.3669C20.0097 17.1122 19.5287 17.8716 18.3412 18.9901L17.8155 18.6545L18.2599 19.0634C17.9971 19.3171 17.2972 19.993 15.9281 20H15.9049Z" fill="#1A1B2F"/>
</svg>
