<svg width="25" height="24" viewBox="0 0 25 24" fill="none" xmlns="http://www.w3.org/2000/svg">
<g clip-path="url(#clip0_14_18673)">
<mask id="mask0_14_18673" style="mask-type:luminance" maskUnits="userSpaceOnUse" x="0" y="-1" width="25" height="25">
<path d="M24.875 -0.000488281H0.875V23.9995H24.875V-0.000488281Z" fill="white"/>
</mask>
<g mask="url(#mask0_14_18673)">
<mask id="mask1_14_18673" style="mask-type:luminance" maskUnits="userSpaceOnUse" x="0" y="-1" width="25" height="25">
<path d="M0.810547 -0.89502H24.9355V23.23H0.810547V-0.89502Z" fill="white"/>
</mask>
<g mask="url(#mask1_14_18673)">
<path d="M16.3242 20.4652C16.3242 20.141 16.0732 19.8784 15.7626 19.8784L10.1533 19.8786C9.84309 19.8786 9.5918 20.1413 9.5918 20.4654C9.5918 20.789 9.84309 21.0517 10.1533 21.0517H15.763C16.0737 21.0519 16.3244 20.7897 16.3244 20.4653L16.3242 20.4652Z" fill="#009DFF"/>
<path d="M10.8067 21.665C10.5485 21.665 10.4771 21.83 10.6469 22.0333L11.5863 23.1554C11.6209 23.1959 11.6902 23.229 11.7418 23.229H14.1729C14.2246 23.229 14.2938 23.1959 14.3283 23.1554L15.2677 22.0333C15.4377 21.8302 15.3663 21.665 15.1079 21.665H10.8067Z" fill="#009DFF"/>
<path d="M18.7694 11.3428C18.7694 7.99649 16.165 5.27393 12.9637 5.27393C9.76262 5.27393 7.1582 7.99649 7.1582 11.3428C7.1582 12.9754 7.89908 14.2496 8.61572 15.4822C9.12595 16.3592 9.61368 17.2048 9.8711 18.1769C9.70772 18.2797 9.59704 18.4642 9.59704 18.6781C9.59704 19.0029 9.84837 19.2651 10.1586 19.2651H11.5955L10.2433 11.9276C10.2269 11.8387 10.2557 11.7472 10.3193 11.6857C10.3832 11.6243 10.4729 11.6016 10.5561 11.6257L11.7651 11.9754L12.6258 10.8198C12.6703 10.7601 12.7371 10.7234 12.8095 10.7192C12.8824 10.7164 12.9521 10.7436 13.0025 10.7977L14.1078 11.9799L15.2963 11.6263C15.3795 11.602 15.4702 11.6236 15.5341 11.6851C15.5981 11.7466 15.6272 11.8383 15.6108 11.9276L14.2586 19.2651H15.7684C16.0789 19.2651 16.3298 19.0028 16.3298 18.6781C16.3298 18.4646 16.2198 18.2797 16.0563 18.1773C16.3136 17.2046 16.801 16.3593 17.3118 15.4824C18.0284 14.2495 18.7694 12.9755 18.7694 11.3428Z" fill="#FFB900"/>
<path d="M15.0428 12.2472L14.1023 12.5271C14.014 12.5526 13.9186 12.5268 13.8548 12.4582L12.8456 11.3789L12.0582 12.4361C11.9961 12.5197 11.8909 12.5558 11.7938 12.5276L10.8125 12.2438L12.0903 19.1768C12.0958 19.2072 12.0937 19.2369 12.0894 19.2659H13.7663C13.7621 19.2369 13.76 19.2072 13.7655 19.1768L15.0428 12.2472Z" fill="#FFB900"/>
<mask id="mask2_14_18673" style="mask-type:alpha" maskUnits="userSpaceOnUse" x="7" y="5" width="12" height="19">
<path d="M16.3222 20.4652C16.3222 20.141 16.0712 19.8784 15.7607 19.8784L10.1513 19.8786C9.84114 19.8786 9.58984 20.1413 9.58984 20.4654C9.58984 20.789 9.84114 21.0517 10.1513 21.0517H15.7611C16.0718 21.0519 16.3224 20.7897 16.3224 20.4653L16.3222 20.4652Z" fill="#009DFF"/>
<path d="M10.8047 21.665C10.5465 21.665 10.4751 21.83 10.6449 22.0333L11.5844 23.1554C11.619 23.1959 11.6883 23.229 11.7398 23.229H14.1709C14.2226 23.229 14.2919 23.1959 14.3263 23.1554L15.2658 22.0333C15.4358 21.8302 15.3643 21.665 15.106 21.665H10.8047Z" fill="#009DFF"/>
<path d="M18.7675 11.3428C18.7675 7.99649 16.163 5.27393 12.9618 5.27393C9.76067 5.27393 7.15625 7.99649 7.15625 11.3428C7.15625 12.9754 7.89713 14.2496 8.61377 15.4822C9.124 16.3592 9.61173 17.2048 9.86915 18.1769C9.70577 18.2797 9.59508 18.4642 9.59508 18.6781C9.59508 19.0029 9.84642 19.2651 10.1567 19.2651H11.5935L10.2413 11.9276C10.2249 11.8387 10.2538 11.7472 10.3174 11.6857C10.3812 11.6243 10.471 11.6016 10.5541 11.6257L11.7632 11.9754L12.6239 10.8198C12.6684 10.7601 12.7352 10.7234 12.8076 10.7192C12.8805 10.7164 12.9502 10.7436 13.0006 10.7977L14.1059 11.9799L15.2944 11.6263C15.3775 11.602 15.4683 11.6236 15.5321 11.6851C15.5962 11.7466 15.6253 11.8383 15.6089 11.9276L14.2567 19.2651H15.7664C16.0769 19.2651 16.3279 19.0028 16.3279 18.6781C16.3279 18.4646 16.2178 18.2797 16.0543 18.1773C16.3116 17.2046 16.7991 16.3593 17.3098 15.4824C18.0265 14.2495 18.7675 12.9755 18.7675 11.3428Z" fill="#FFB900"/>
<path d="M15.0408 12.2477L14.1003 12.5276C14.012 12.5531 13.9167 12.5273 13.8528 12.4586L12.8436 11.3794L12.0563 12.4365C11.9942 12.5201 11.889 12.5563 11.7919 12.5281L10.8105 12.2442L12.0883 19.1773C12.0938 19.2077 12.0917 19.2374 12.0875 19.2664H13.7644C13.7601 19.2374 13.758 19.2077 13.7635 19.1773L15.0408 12.2477Z" fill="#FFB900"/>
</mask>
<g mask="url(#mask2_14_18673)">
<g opacity="0.5">
<path d="M6.51204 12.1575C6.49402 12.4152 6.48753 12.6709 6.49083 12.9243C6.97494 13.0915 7.48694 13.1982 8.01937 13.2354C11.4371 13.4744 14.4211 10.762 14.671 7.18924C14.7529 6.0174 14.465 4.9936 14.0631 4.03224C10.0694 4.45585 6.81432 7.83466 6.51204 12.1575ZM14.8877 4.0899L7.11419 3.54633L6.44437 13.1253L14.2179 13.6689L14.8877 4.0899ZM20.543 20.7397L-5.24903 18.9362L-3.44548 -6.85583L22.3465 -5.05227L20.543 20.7397ZM22.3465 -5.05227L-3.44548 -6.85583L-5.24903 18.9362L20.543 20.7397L22.3465 -5.05227ZM14.2179 13.6689L6.44437 13.1253L7.11419 3.54633L14.8877 4.0899L14.2179 13.6689Z" fill="#FFDB5C"/>
</g>
</g>
<mask id="mask3_14_18673" style="mask-type:luminance" maskUnits="userSpaceOnUse" x="-1" y="-3" width="28" height="29">
<path d="M-0.869141 -2.41113H26.6186V25.0766H-0.869141V-2.41113Z" fill="white"/>
</mask>
<g mask="url(#mask3_14_18673)">
<mask id="mask4_14_18673" style="mask-type:luminance" maskUnits="userSpaceOnUse" x="4" y="16" width="5" height="4">
<path d="M7.12854 16.0566L4.99219 17.8132L6.4639 19.4273L8.2442 17.2672L7.12854 16.0566Z" fill="white"/>
</mask>
<g mask="url(#mask4_14_18673)">
<path d="M7.88007 16.5762L6.19922 18.34" stroke="#FFDB5C" stroke-width="8.65997" stroke-linecap="round"/>
</g>
</g>
<mask id="mask5_14_18673" style="mask-type:luminance" maskUnits="userSpaceOnUse" x="-7" y="-9" width="40" height="40">
<path d="M13.2129 -8.1001L32.3075 11.673L12.5345 30.7676L-6.56016 10.9945L13.2129 -8.1001Z" fill="white"/>
</mask>
<g mask="url(#mask5_14_18673)">
<mask id="mask6_14_18673" style="mask-type:luminance" maskUnits="userSpaceOnUse" x="2" y="10" width="4" height="3">
<path d="M5.48599 10.4826L2.73839 10.166L2.59962 12.3459L5.51514 12.0844L5.48599 10.4826Z" fill="white"/>
</mask>
<g mask="url(#mask6_14_18673)">
<path d="M5.63442 11.3824L3.19804 11.3986" stroke="#FFDB5C" stroke-width="8.65997" stroke-linecap="round"/>
</g>
</g>
<mask id="mask7_14_18673" style="mask-type:luminance" maskUnits="userSpaceOnUse" x="-2" y="-4" width="30" height="30">
<path d="M27.3184 -1.67285L25.8798 25.7773L-1.57035 24.3387L-0.13175 -3.11145L27.3184 -1.67285Z" fill="white"/>
</mask>
<g mask="url(#mask7_14_18673)">
<mask id="mask8_14_18673" style="mask-type:luminance" maskUnits="userSpaceOnUse" x="5" y="3" width="4" height="4">
<path d="M8.4585 5.34876L6.81616 3.1234L5.12721 4.50862L7.29534 6.5037L8.4585 5.34876Z" fill="white"/>
</mask>
<g mask="url(#mask8_14_18673)">
<path d="M7.90227 6.06966L6.22887 4.2988" stroke="#FFDB5C" stroke-width="8.65997" stroke-linecap="round"/>
</g>
</g>
<mask id="mask9_14_18673" style="mask-type:luminance" maskUnits="userSpaceOnUse" x="-7" y="-9" width="40" height="40">
<path d="M32.3105 11.334L12.8738 30.7708L-6.56305 11.334L12.8738 -8.10281L32.3105 11.334Z" fill="white"/>
</mask>
<g mask="url(#mask9_14_18673)">
<mask id="mask10_14_18673" style="mask-type:luminance" maskUnits="userSpaceOnUse" x="11" y="1" width="3" height="3">
<path d="M13.5948 3.93055L13.8634 1.17785L11.6814 1.07714L11.8249 3.94675L13.5948 3.93055Z" fill="white"/>
</mask>
<g mask="url(#mask10_14_18673)">
<path d="M12.6982 4.09479L12.6395 1.65906" stroke="#FFDB5C" stroke-width="8.65997" stroke-linecap="round"/>
</g>
</g>
<mask id="mask11_14_18673" style="mask-type:luminance" maskUnits="userSpaceOnUse" x="-1" y="-3" width="28" height="29">
<path d="M26.6172 25.0771H-0.870594V-2.41063H26.6172V25.0771Z" fill="white"/>
</mask>
<g mask="url(#mask11_14_18673)">
<mask id="mask12_14_18673" style="mask-type:luminance" maskUnits="userSpaceOnUse" x="17" y="3" width="4" height="4">
<path d="M18.6176 6.60938L20.7539 4.85282L19.2822 3.23868L17.3769 5.46127L18.6176 6.60938Z" fill="white"/>
</mask>
<g mask="url(#mask12_14_18673)">
<path d="M17.8699 6.08984L19.5508 4.32606" stroke="#FFDB5C" stroke-width="8.65997" stroke-linecap="round"/>
</g>
</g>
<mask id="mask13_14_18673" style="mask-type:luminance" maskUnits="userSpaceOnUse" x="-7" y="-9" width="40" height="40">
<path d="M12.1953 30.7583L-6.55131 10.655L13.552 -8.09161L32.2986 12.0117L12.1953 30.7583Z" fill="white"/>
</mask>
<g mask="url(#mask13_14_18673)">
<mask id="mask14_14_18673" style="mask-type:luminance" maskUnits="userSpaceOnUse" x="20" y="10" width="4" height="3">
<path d="M20.2442 12.3126L22.9858 12.677L23.1626 10.4998L20.2229 10.671L20.2442 12.3126Z" fill="white"/>
</mask>
<g mask="url(#mask14_14_18673)">
<path d="M20.1134 11.4108L22.5497 11.4372" stroke="#FFDB5C" stroke-width="8.65997" stroke-linecap="round"/>
</g>
</g>
<mask id="mask15_14_18673" style="mask-type:luminance" maskUnits="userSpaceOnUse" x="-2" y="-4" width="30" height="30">
<path d="M-1.57031 24.3389L-0.131713 -3.11124L27.3184 -1.67264L25.8798 25.7775L-1.57031 24.3389Z" fill="white"/>
</mask>
<g mask="url(#mask15_14_18673)">
<mask id="mask16_14_18673" style="mask-type:luminance" maskUnits="userSpaceOnUse" x="17" y="16" width="4" height="4">
<path d="M17.2895 17.3168L18.9319 19.5421L20.6208 18.1569L18.5152 16.141L17.2895 17.3168Z" fill="white"/>
</mask>
<g mask="url(#mask16_14_18673)">
<path d="M17.8458 16.5959L19.5192 18.3667" stroke="#FFDB5C" stroke-width="8.65997" stroke-linecap="round"/>
</g>
</g>
</g>
</g>
</g>
<defs>
<clipPath id="clip0_14_18673">
<rect width="24" height="24" fill="white" transform="translate(0.875)"/>
</clipPath>
</defs>
</svg>
