<svg width="32" height="32" viewBox="0 0 32 32" fill="none" xmlns="http://www.w3.org/2000/svg">
<rect x="0.5" y="0.5" width="31" height="31" rx="15.5" stroke="#5B5B5B"/>
<mask id="mask0_116_3363" style="mask-type:alpha" maskUnits="userSpaceOnUse" x="6" y="6" width="20" height="20">
<rect x="6" y="6" width="20" height="20" fill="#D9D9D9"/>
</mask>
<g mask="url(#mask0_116_3363)">
<path d="M11.8333 23.5C11.3749 23.5 10.9826 23.3368 10.6562 23.0104C10.3298 22.684 10.1666 22.2917 10.1666 21.8333V11H9.33325V9.33333H13.4999V8.5H18.4999V9.33333H22.6666V11H21.8333V21.8333C21.8333 22.2917 21.6701 22.684 21.3437 23.0104C21.0173 23.3368 20.6249 23.5 20.1666 23.5H11.8333ZM20.1666 11H11.8333V21.8333H20.1666V11ZM13.4999 20.1667H15.1666V12.6667H13.4999V20.1667ZM16.8333 20.1667H18.4999V12.6667H16.8333V20.1667Z" fill="#5B5B5B"/>
</g>
</svg>
