<svg width="16" height="17" viewBox="0 0 16 17" fill="none" xmlns="http://www.w3.org/2000/svg">
<path d="M0.5 17V14H15.5V17H0.5ZM3.5 11H4.55L10.4 5.16875L9.33125 4.1L3.5 9.95V11ZM2 12.5V9.3125L10.4 0.93125C10.5375 0.79375 10.6969 0.6875 10.8781 0.6125C11.0594 0.5375 11.25 0.5 11.45 0.5C11.65 0.5 11.8438 0.5375 12.0312 0.6125C12.2188 0.6875 12.3875 0.8 12.5375 0.95L13.5688 2C13.7188 2.1375 13.8281 2.3 13.8969 2.4875C13.9656 2.675 14 2.86875 14 3.06875C14 3.25625 13.9656 3.44062 13.8969 3.62187C13.8281 3.80312 13.7188 3.96875 13.5688 4.11875L5.1875 12.5H2Z" fill="white"/>
</svg>
