<svg width="20" height="20" viewBox="0 0 20 20" fill="none" xmlns="http://www.w3.org/2000/svg">
<g clip-path="url(#clip0_114_4374)">
<path d="M10 20C15.5228 20 20 15.5228 20 10C20 4.47715 15.5228 0 10 0C4.47715 0 0 4.47715 0 10C0 15.5228 4.47715 20 10 20Z" fill="#FFD93B"/>
<path d="M10.0003 16.4278C7.07593 16.4278 4.52781 14.4471 3.80406 11.6121C3.74718 11.389 3.88156 11.1621 4.10468 11.1053C4.32656 11.0471 4.55406 11.1828 4.61093 11.4059C5.24093 13.8721 7.45656 15.5946 9.99968 15.5946C12.5428 15.5946 14.7591 13.8721 15.3884 11.4059C15.4447 11.1828 15.6716 11.0471 15.8953 11.1053C16.1184 11.1621 16.2528 11.389 16.1959 11.6121C15.4728 14.4471 12.9247 16.4278 10.0003 16.4278Z" fill="#3E4347"/>
<path d="M19.9992 10.0002C19.9992 15.5252 15.5211 20.0002 9.99922 20.0002C6.85547 20.0002 4.04922 18.5502 2.21484 16.2783C3.93047 17.6658 6.11484 18.4939 8.49297 18.4939C14.0148 18.4939 18.493 14.0189 18.493 8.49395C18.493 6.11582 17.6648 3.93145 16.2773 2.21582C18.5461 4.0502 19.9992 6.85645 19.9992 10.0002Z" fill="#F4C534"/>
<path d="M6.77066 10.4267C7.61704 10.4267 8.30316 9.61128 8.30316 8.60543C8.30316 7.59958 7.61704 6.78418 6.77066 6.78418C5.92428 6.78418 5.23816 7.59958 5.23816 8.60543C5.23816 9.61128 5.92428 10.4267 6.77066 10.4267Z" fill="#3E4347"/>
<path d="M7.46138 8.2137C7.34201 8.30745 7.14576 8.2612 7.02013 8.1087C6.89451 7.9562 6.88826 7.75182 7.00763 7.65807C7.12638 7.55995 7.32326 7.6062 7.44826 7.7587C7.57451 7.91557 7.57576 8.1162 7.46138 8.2137Z" fill="#5A5F63"/>
<path d="M13.2317 10.4267C14.0781 10.4267 14.7642 9.61128 14.7642 8.60543C14.7642 7.59958 14.0781 6.78418 13.2317 6.78418C12.3853 6.78418 11.6992 7.59958 11.6992 8.60543C11.6992 9.61128 12.3853 10.4267 13.2317 10.4267Z" fill="#3E4347"/>
<path d="M13.9204 8.2137C13.801 8.30745 13.6047 8.2612 13.4791 8.1087C13.3535 7.9562 13.3472 7.75182 13.4666 7.65807C13.5854 7.55995 13.7816 7.6062 13.9072 7.7587C14.0335 7.91557 14.0347 8.1162 13.9204 8.2137Z" fill="#5A5F63"/>
</g>
<defs>
<clipPath id="clip0_114_4374">
<rect width="20" height="20" fill="white"/>
</clipPath>
</defs>
</svg>
