<svg width="51" height="50" viewBox="0 0 51 50" fill="none" xmlns="http://www.w3.org/2000/svg">
<rect x="0.5" width="50" height="50" rx="25" fill="#FFE8DC"/>
<path d="M29.5767 14.945C29.5767 14.945 30.4245 14.1709 30.7954 13.8501C31.1664 13.5293 31.8579 14.1137 31.8579 14.1137C31.8579 14.1137 32.5749 15.0165 31.9157 15.1872C31.4008 15.3557 30.9143 15.5951 30.4715 15.8978L29.5767 14.945Z" fill="#B897FF"/>
<path d="M23.9736 13.2461L26.6682 16.6942C26.6803 16.7097 26.6955 16.7228 26.713 16.7325C26.7304 16.7423 26.7497 16.7487 26.7697 16.7512C26.7898 16.7538 26.8102 16.7525 26.8297 16.7474C26.8492 16.7423 26.8674 16.7335 26.8833 16.7216L29.9059 14.6435L30.5984 16.1251C30.5984 16.1251 27.8233 18.8987 26.9864 19.1001C26.7588 19.1645 26.5179 19.1722 26.2862 19.1228C26.0546 19.0733 25.84 18.9682 25.6625 18.8173L23.554 16.1503L23.9736 13.2461Z" fill="#ED9B00"/>
<path d="M28.853 39.5762C28.853 39.5762 29.323 40.9296 29.653 41.1403C29.9831 41.3509 32.814 41.5246 32.814 41.5246C32.814 41.5246 33.4437 41.6129 32.814 42.1302C32.1476 42.6449 31.3306 42.9485 30.4759 42.9991C29.7057 42.9991 27.5349 42.907 27.0651 42.8411C26.5154 42.764 26.5074 41.2876 26.5074 41.2876C26.5074 41.2876 26.4368 40.5446 26.3641 40.1569C26.3124 39.8814 28.853 39.5762 28.853 39.5762Z" fill="#B897FF"/>
<path d="M16.9046 38.9473C16.9046 38.9473 16.555 40.2348 16.7199 40.5801C16.8848 40.9255 19.2668 42.3564 19.2668 42.3564C19.2668 42.3564 19.7976 42.727 18.9339 42.8714C18.2185 42.991 17.0581 43.0633 16.4032 42.6754C15.7482 42.2875 13.9437 41.1259 13.5895 40.8232C13.2353 40.5205 14.0469 39.3076 14.0469 39.3076C14.0469 39.3076 14.4589 38.5186 14.6072 38.1113C14.7035 37.847 16.9046 38.9473 16.9046 38.9473Z" fill="#B897FF"/>
<path d="M23.1938 25.7303L21.1158 32.1092L17.3176 39.308C16.0573 39.1298 14.8357 38.7567 13.7005 38.2032L17.4613 30.726L19.2555 23.9688L23.1938 25.7303Z" fill="#6029EA"/>
<path d="M23.8904 22.4707C23.8904 22.4707 27.105 29.6336 27.4078 31.0944C27.7107 32.5552 29.2754 38.6739 29.6086 39.5766C29.6086 39.5766 27.0989 40.6713 25.6855 40.5747L23.4794 31.9773L18.338 22.4707H23.8904Z" fill="#712FFF"/>
<path d="M23.7153 11.254C24.0074 11.7766 24.4608 12.7255 24.4608 12.7255C24.6483 13.1723 24.7972 13.6331 24.906 14.1032C25.0569 14.746 25.1575 15.3987 25.2069 16.0559C25.3318 17.1258 25.1295 23.2468 25.1295 23.2468L18.7294 23.1103C18.7294 23.1103 18.1101 14.4224 18.4624 13.5969C18.8146 12.7714 21.1754 10.3758 21.1754 10.3758L21.5944 9.92773L23.7153 11.254Z" fill="#FFB900"/>
<path d="M20.5678 23.9688C20.7494 24.5926 20.8102 25.2429 20.747 25.8877C20.6031 26.7221 19.5651 26.7221 19.5651 26.7221C19.5651 26.7221 18.8777 26.7221 18.7777 25.9083C18.7442 25.3062 18.8377 24.7038 19.0528 24.137L20.5678 23.9688Z" fill="#B897FF"/>
<path d="M30.7034 21.7102C30.8103 21.6963 30.9091 21.6482 30.9836 21.5736C31.0582 21.499 31.1041 21.4024 31.1138 21.2996L32.7969 3.49771C32.8027 3.43803 32.7961 3.37785 32.7775 3.32061C32.759 3.26337 32.7288 3.2102 32.6887 3.16414C32.6487 3.11808 32.5995 3.08004 32.5441 3.05219C32.4886 3.02434 32.428 3.00723 32.3656 3.00184C32.3033 2.99646 32.2404 3.0029 32.1807 3.0208C32.1209 3.03869 32.0654 3.0677 32.0174 3.10615C31.9694 3.1446 31.9297 3.19174 31.9007 3.24487C31.8718 3.298 31.854 3.35608 31.8485 3.41579L30.1654 21.2177C30.1589 21.2859 30.1686 21.3546 30.1937 21.4187C30.2188 21.4829 30.2587 21.5408 30.3104 21.5881C30.3621 21.6354 30.4243 21.671 30.4923 21.6921C30.5604 21.7133 30.6326 21.7195 30.7034 21.7102Z" fill="#712FFF"/>
<path d="M18.4608 13.5996L17.6064 18.4193C17.5659 18.6481 17.5667 18.8818 17.6088 19.1103L18.5877 24.4185L20.9495 23.9705L19.7279 18.0421L18.4608 13.5996Z" fill="#FFB900"/>
<path d="M24.9165 5.85195C25.2739 6.43502 25.4952 7.08524 25.5652 7.75795C25.6352 8.43066 25.5523 9.1099 25.322 9.749C25.322 9.749 25.322 10.0028 24.8229 9.9879C24.3237 9.97297 23.8714 9.85352 23.809 10.4657C23.7466 11.0779 23.6686 12.0783 23.6686 12.0783L21.594 9.92817L21.7812 8.89792C21.5847 8.63479 21.4918 8.31368 21.5186 7.99129C21.5455 7.66891 21.6906 7.366 21.9281 7.13604C22.7795 6.28495 23.9494 4.82169 24.9165 5.85195Z" fill="#B897FF"/>
<path d="M24.9186 5.85238C24.9186 5.85238 25.7216 4.989 23.8245 4.61687C21.9273 4.24473 21.1653 5.26438 21.1653 5.26438C21.1653 5.26438 20.5122 5.86724 20.5744 7.20693C20.6366 8.54661 21.9303 9.55882 21.9303 9.55882C22.1251 9.49456 22.2875 9.3623 22.385 9.18846C22.4824 9.01463 22.5078 8.812 22.456 8.62104C22.3316 7.86188 22.7048 7.28137 23.078 7.48975C23.4512 7.69813 23.9078 5.28673 24.9186 5.85238Z" fill="#FFB900"/>
<path d="M36.8809 5.00001L27.3283 4.35156L26.8876 10.3004L36.4402 10.9489L36.8809 5.00001Z" fill="#00BEAC"/>
<path d="M37.5 4.5254L27.9474 3.87695L27.5067 9.82583L37.0593 10.4743L37.5 4.5254Z" fill="#00E0CA"/>
<path d="M28.5842 6.56003L28.5245 7.36719L33.0686 7.67539L33.1283 6.86822L28.5842 6.56003Z" fill="white"/>
<path d="M33.2272 5.52344L36.6986 7.51675L32.968 9.02122L33.2272 5.52369V5.52344Z" fill="white"/>
<path d="M37.0586 10.4743L36.4398 10.9553L26.887 10.3067L27.3279 4.35794L27.9467 3.87695L27.5061 9.82575L37.0586 10.4743Z" fill="#00BEAC"/>
<path opacity="0.5" d="M28.3085 6.89855L28.5825 6.56009L28.5561 6.91551L32.8528 7.20714L32.8248 7.58586L32.9523 5.8619H32.9525L33.2263 5.52344L33.1911 5.99885L36.1904 7.72104L36.6979 7.51649L36.4239 7.85496L32.6934 9.35943L32.8005 7.89976L28.2562 7.59117L28.3085 6.89855Z" fill="white"/>
</svg>
