<svg width="25" height="24" viewBox="0 0 25 24" fill="none" xmlns="http://www.w3.org/2000/svg">
<mask id="mask0_14_18617" style="mask-type:luminance" maskUnits="userSpaceOnUse" x="0" y="0" width="25" height="20">
<path d="M24.0938 0H0.09375V19.2H24.0938V0Z" fill="white"/>
</mask>
<g mask="url(#mask0_14_18617)">
<path d="M16.6348 18.3585C16.6348 18.1298 16.8666 17.9443 17.1525 17.9443C17.4383 17.9443 17.67 18.1298 17.67 18.3585C17.67 18.5872 17.4383 18.7726 17.1525 18.7726C16.8666 18.7726 16.6348 18.5872 16.6348 18.3585Z" fill="#68CCFD"/>
<path d="M1.13672 4.12792C1.13672 3.89924 1.36858 3.71387 1.65443 3.71387C1.94028 3.71387 2.172 3.89924 2.172 4.12792C2.172 4.3566 1.94028 4.54209 1.65443 4.54209C1.36858 4.54209 1.13672 4.3566 1.13672 4.12792Z" fill="#FCB705"/>
<path d="M20.3086 4.12717C20.3086 3.81693 20.623 3.56543 21.0108 3.56543C21.3986 3.56543 21.713 3.81693 21.713 4.12717C21.713 4.43742 21.3986 4.68892 21.0108 4.68892C20.623 4.68892 20.3086 4.43742 20.3086 4.12717Z" fill="#FD3C8C"/>
<path d="M13.9029 1.51079L13.1348 0.896263L13.9029 0.281738L14.6711 0.896263L13.9029 1.51079Z" fill="#68CCFD"/>
<path d="M22.481 12.0787L21.7129 11.4641L22.481 10.8496L23.2492 11.4641L22.481 12.0787Z" fill="#FCB705"/>
<path d="M4.75058 16.1451L3.98242 15.5305L4.75058 14.916L5.51873 15.5305L4.75058 16.1451Z" fill="#FDAD6A"/>
<path d="M13.9828 17.0402C13.3977 17.0402 12.9219 16.6595 12.9219 16.1915C12.9219 15.7235 13.3977 15.3428 13.9828 15.3428C14.5678 15.3428 15.0438 15.7235 15.0438 16.1915C15.0438 16.6595 14.5678 17.0402 13.9828 17.0402ZM13.9828 15.4988C13.5053 15.4988 13.1169 15.8095 13.1169 16.1915C13.1169 16.5735 13.5053 16.8842 13.9828 16.8842C14.4602 16.8842 14.8486 16.5735 14.8486 16.1915C14.8486 15.8095 14.4602 15.4988 13.9828 15.4988Z" fill="#FD3C8C"/>
<path d="M1.93535 7.92323C1.45304 7.92323 1.06055 7.60924 1.06055 7.22339C1.06055 6.83755 1.45304 6.52344 1.93535 6.52344C2.41766 6.52344 2.81015 6.83755 2.81015 7.22339C2.81015 7.60924 2.41766 7.92323 1.93535 7.92323ZM1.93535 6.65217C1.54154 6.65217 1.22132 6.90835 1.22132 7.22339C1.22132 7.53844 1.54154 7.7945 1.93535 7.7945C2.32915 7.7945 2.64938 7.53844 2.64938 7.22339C2.64938 6.90835 2.32915 6.65217 1.93535 6.65217Z" fill="#FD3C8C"/>
<path d="M13.6555 7.44035C13.6555 7.44035 13.6281 6.849 12.7794 6.30141C11.9306 5.75383 10.7259 4.87763 10.2605 4.02343C9.98675 3.52113 9.63742 3.37473 9.3959 3.33939C9.22928 3.31504 9.059 3.35249 8.92134 3.43149C8.66973 3.57579 8.26232 3.92208 8.31644 4.63666C8.36837 5.32211 8.47794 5.63399 8.78193 6.19187C9.40116 7.32835 9.05578 8.38221 9.05578 8.38221L8.2787 10.2002L5.74383 11.7856C5.74383 11.7856 5.31696 13.1595 9.68555 13.2229C12.1568 13.2588 12.8067 13.0038 13.19 12.8068C13.5733 12.6097 13.6281 12.3687 13.6555 12.0182C13.6829 11.6677 13.6555 7.44035 13.6555 7.44035Z" fill="#3AC3FC"/>
<path d="M17.2036 12.9697H14.7483C13.9554 12.9697 13.3125 12.4554 13.3125 11.8211V8.09482C13.3125 7.46052 13.9554 6.94629 14.7483 6.94629H17.2036C17.9965 6.94629 18.6393 7.46052 18.6393 8.09482V11.8211C18.6393 12.4554 17.9965 12.9697 17.2036 12.9697Z" fill="#FD5602"/>
<path d="M7.44037 12.9697H8.86126C9.4802 12.9697 10.0267 12.7231 10.3563 12.346C10.6568 12.0023 10.3423 11.5293 9.81798 11.5293H5.61719C5.63021 12.3264 6.44093 12.9697 7.44037 12.9697Z" fill="#83D6FD"/>
<path d="M8.86109 7.23682H7.4402C6.46329 7.23682 5.66676 7.85146 5.61921 8.62362C5.61746 8.65265 5.64759 8.67734 5.68387 8.67734H9.93616C10.3879 8.67734 10.6691 8.28622 10.4448 7.97247C10.1307 7.53302 9.53928 7.23682 8.86109 7.23682Z" fill="#83D6FD"/>
<path d="M5.61719 8.83345V8.69629C5.61719 8.69617 5.61719 8.69641 5.61719 8.69629V11.5102C5.61719 11.5103 5.61719 11.5103 5.61719 11.5104V11.3732H9.94189C10.3532 11.3732 10.6868 11.1064 10.6868 10.7773C10.6868 10.4482 10.3532 10.1814 9.94189 10.1814H5.61719V10.0253H10.002C10.3802 10.0253 10.6868 9.77999 10.6868 9.47746V9.38127C10.6868 9.07874 10.3802 8.83345 10.002 8.83345H5.61719Z" fill="#83D6FD"/>
<path d="M5.61719 8.67676V8.6956C5.61719 8.68928 5.61821 8.68308 5.61836 8.67676H5.61719Z" fill="#3AC3FC"/>
<path d="M10.6868 8.83276V8.69572C10.6868 8.68928 10.6858 8.68319 10.6856 8.67676H5.61836C5.61821 8.68308 5.61719 8.68928 5.61719 8.6956V8.83276H10.6868Z" fill="#3AC3FC"/>
<path d="M5.61719 10.182H10.6868V10.0259H5.61719V10.182Z" fill="#3AC3FC"/>
<path d="M5.61719 11.5286H5.61836C5.61821 11.5223 5.61719 11.5162 5.61719 11.5098V11.5286Z" fill="#3AC3FC"/>
<path d="M5.61719 11.5107C5.61719 11.5171 5.61821 11.5232 5.61836 11.5295H10.6856C10.6858 11.5231 10.6868 11.5169 10.6868 11.5105V11.3735H5.61719V11.5107Z" fill="#3AC3FC"/>
</g>
</svg>
