<svg width="20" height="20" viewBox="0 0 20 20" fill="none" xmlns="http://www.w3.org/2000/svg">
<mask id="mask0_13_8353" style="mask-type:alpha" maskUnits="userSpaceOnUse" x="0" y="0" width="20" height="20">
<rect width="20" height="20" fill="#D9D9D9"/>
</mask>
<g mask="url(#mask0_13_8353)">
<path d="M9.99992 11.2502C9.4177 11.2502 8.92492 11.0485 8.52159 10.6452C8.11825 10.2418 7.91659 9.74905 7.91659 9.16683V4.16683C7.91659 3.58461 8.11825 3.09183 8.52159 2.6885C8.92492 2.28516 9.4177 2.0835 9.99992 2.0835C10.5821 2.0835 11.0749 2.28516 11.4783 2.6885C11.8816 3.09183 12.0833 3.58461 12.0833 4.16683V9.16683C12.0833 9.74905 11.8816 10.2418 11.4783 10.6452C11.0749 11.0485 10.5821 11.2502 9.99992 11.2502ZM9.37492 17.2918V14.545C7.99992 14.3879 6.85756 13.7981 5.94784 12.7758C5.03811 11.7533 4.58325 10.5503 4.58325 9.16683H5.83325C5.83325 10.3196 6.2395 11.3022 7.052 12.1147C7.8645 12.9272 8.84714 13.3335 9.99992 13.3335C11.1527 13.3335 12.1353 12.9272 12.9478 12.1147C13.7603 11.3022 14.1666 10.3196 14.1666 9.16683H15.4166C15.4166 10.5503 14.9617 11.7533 14.052 12.7758C13.1423 13.7981 11.9999 14.3879 10.6249 14.545V17.2918H9.37492ZM9.99992 10.0002C10.236 10.0002 10.4339 9.9203 10.5937 9.76058C10.7534 9.60086 10.8333 9.40294 10.8333 9.16683V4.16683C10.8333 3.93072 10.7534 3.7328 10.5937 3.57308C10.4339 3.41336 10.236 3.3335 9.99992 3.3335C9.76381 3.3335 9.56589 3.41336 9.40617 3.57308C9.24645 3.7328 9.16659 3.93072 9.16659 4.16683V9.16683C9.16659 9.40294 9.24645 9.60086 9.40617 9.76058C9.56589 9.9203 9.76381 10.0002 9.99992 10.0002Z" fill="#5B5B5B"/>
</g>
</svg>
