<svg width="24" height="24" viewBox="0 0 24 24" fill="none" xmlns="http://www.w3.org/2000/svg">
<rect x="0.3" y="0.3" width="23.4" height="23.4" rx="11.7" stroke="#4E53B1" stroke-width="0.6"/>
<path d="M15.6004 6V7.8M8.40039 6V7.8" stroke="#4E53B1" stroke-width="0.9" stroke-linecap="round" stroke-linejoin="round"/>
<path d="M16.5008 6.8999H7.50078C6.83804 6.8999 6.30078 7.43716 6.30078 8.0999V16.7999C6.30078 17.4627 6.83804 17.9999 7.50078 17.9999H16.5008C17.1635 17.9999 17.7008 17.4627 17.7008 16.7999V8.0999C17.7008 7.43716 17.1635 6.8999 16.5008 6.8999Z" stroke="#4E53B1" stroke-width="0.9" stroke-linecap="round" stroke-linejoin="round"/>
<path d="M6.30078 9.59961H17.7008" stroke="#4E53B1" stroke-width="0.9" stroke-linecap="round" stroke-linejoin="round"/>
<path d="M9.8677 13.5168C10.8331 13.3966 11.5983 12.6315 11.7185 11.6661C11.7367 11.5199 11.8543 11.3999 12.0016 11.3999C12.1489 11.3999 12.2665 11.5199 12.2846 11.6661C12.4048 12.6315 13.17 13.3966 14.1354 13.5168C14.2816 13.535 14.4016 13.6526 14.4016 13.7999C14.4016 13.9472 14.2816 14.0648 14.1354 14.083C13.17 14.2032 12.4048 14.9683 12.2846 15.9337C12.2665 16.0799 12.1489 16.1999 12.0016 16.1999C11.8543 16.1999 11.7367 16.0799 11.7185 15.9337C11.5983 14.9683 10.8331 14.2032 9.8677 14.083C9.72155 14.0648 9.60156 13.9472 9.60156 13.7999C9.60156 13.6526 9.72155 13.535 9.8677 13.5168Z" stroke="#4E53B1" stroke-width="0.9"/>
</svg>
