<svg width="18" height="18" viewBox="0 0 18 18" fill="none" xmlns="http://www.w3.org/2000/svg">
<path d="M11.625 9C11.625 10.4497 10.4497 11.625 9 11.625C7.55025 11.625 6.375 10.4497 6.375 9C6.375 7.55025 7.55025 6.375 9 6.375C10.4497 6.375 11.625 7.55025 11.625 9Z" stroke="white" stroke-width="1.5"/>
<path d="M16.5 10.4752V7.5249C14.3575 7.5249 12.9643 5.19781 14.049 3.35018L11.4509 1.87507C10.3529 3.74554 7.64835 3.74546 6.55022 1.875L3.95215 3.35011C5.03689 5.19776 3.64255 7.5249 1.5 7.5249V10.4752C3.64251 10.4752 5.03569 12.8023 3.95096 14.6499L6.54904 16.125C7.64767 14.2536 10.3534 14.2535 11.4521 16.1249L14.0502 14.6498C12.9656 12.8022 14.3575 10.4752 16.5 10.4752Z" stroke="white" stroke-width="1.5" stroke-linecap="round" stroke-linejoin="round"/>
</svg>
