<svg width="19" height="18" viewBox="0 0 19 18" fill="none" xmlns="http://www.w3.org/2000/svg">
<g clip-path="url(#clip0_215_64802)">
<path d="M2.49155 6.44159C2.46953 6.44161 2.44771 6.43729 2.42736 6.42886C2.40701 6.42042 2.38853 6.40805 2.37298 6.39246L0.549113 4.56848C0.517667 4.53703 0.5 4.49438 0.5 4.44991C0.5 4.40544 0.517667 4.36279 0.549113 4.33134C0.58056 4.29989 0.623211 4.28223 0.667684 4.28223C0.712156 4.28223 0.754808 4.29989 0.786254 4.33134L2.61012 6.15532C2.63357 6.17877 2.64954 6.20865 2.65601 6.24118C2.66247 6.2737 2.65915 6.30742 2.64646 6.33806C2.63377 6.3687 2.61228 6.39489 2.58471 6.41332C2.55713 6.43174 2.52472 6.44158 2.49155 6.44159Z" fill="#FFB900"/>
<path d="M4.13814 3.96258C4.11612 3.96261 4.0943 3.95828 4.07396 3.94985C4.05361 3.94142 4.03513 3.92905 4.01957 3.91345L2.1956 2.08948C2.16415 2.05803 2.14648 2.01538 2.14648 1.97091C2.14648 1.92643 2.16415 1.88378 2.1956 1.85234C2.22704 1.82089 2.2697 1.80322 2.31417 1.80322C2.35864 1.80322 2.40129 1.82089 2.43274 1.85234L4.25672 3.67631C4.28017 3.69977 4.29614 3.72964 4.30261 3.76217C4.30908 3.7947 4.30576 3.82842 4.29307 3.85906C4.28037 3.8897 4.25888 3.91589 4.23131 3.93432C4.20373 3.95275 4.17131 3.96258 4.13814 3.96258Z" fill="#FFB900"/>
<path d="M6.61666 2.31561C6.59463 2.31564 6.57282 2.31131 6.55247 2.30288C6.53212 2.29445 6.51364 2.28208 6.49809 2.26648L4.67411 0.442504C4.65854 0.426933 4.64619 0.408448 4.63776 0.388104C4.62934 0.367759 4.625 0.345955 4.625 0.323934C4.625 0.301913 4.62934 0.280108 4.63776 0.259764C4.64619 0.23942 4.65854 0.220934 4.67411 0.205363C4.70556 0.173917 4.74821 0.15625 4.79268 0.15625C4.8147 0.15625 4.83651 0.160587 4.85685 0.169014C4.8772 0.177441 4.89568 0.189793 4.91125 0.205363L6.73523 2.02934C6.75868 2.05279 6.77465 2.08267 6.78112 2.1152C6.78759 2.14773 6.78427 2.18145 6.77158 2.21209C6.75889 2.24273 6.7374 2.26892 6.70982 2.28735C6.68224 2.30577 6.64982 2.31561 6.61666 2.31561Z" fill="#FFB900"/>
<path d="M18.3296 13.718C18.3075 13.718 18.2857 13.7137 18.2654 13.7052C18.245 13.6968 18.2265 13.6844 18.211 13.6688L16.387 11.8448C16.3556 11.8134 16.3379 11.7708 16.3379 11.7263C16.3379 11.6818 16.3556 11.6392 16.387 11.6077C16.4185 11.5763 16.4611 11.5586 16.5056 11.5586C16.55 11.5586 16.5927 11.5763 16.6241 11.6077L18.4481 13.4317C18.4716 13.4551 18.4875 13.485 18.494 13.5175C18.5005 13.5501 18.4972 13.5838 18.4845 13.6144C18.4718 13.6451 18.4503 13.6713 18.4227 13.6897C18.3951 13.7081 18.3627 13.718 18.3296 13.718Z" fill="#FFB900"/>
<path d="M16.6831 16.197C16.661 16.197 16.6392 16.1927 16.6189 16.1842C16.5985 16.1758 16.58 16.1634 16.5645 16.1478L14.7405 14.3239C14.7091 14.2924 14.6914 14.2498 14.6914 14.2053C14.6914 14.1608 14.7091 14.1182 14.7405 14.0867C14.772 14.0553 14.8146 14.0376 14.8591 14.0376C14.9036 14.0376 14.9462 14.0553 14.9777 14.0867L16.8016 15.9107C16.8251 15.9341 16.8411 15.964 16.8475 15.9965C16.854 16.0291 16.8507 16.0628 16.838 16.0934C16.8253 16.1241 16.8038 16.1503 16.7762 16.1687C16.7486 16.1871 16.7162 16.197 16.6831 16.197Z" fill="#FFB900"/>
<path d="M14.2044 17.8443C14.1824 17.8443 14.1606 17.84 14.1403 17.8316C14.1199 17.8231 14.1014 17.8108 14.0859 17.7952L12.262 15.9713C12.2306 15.9399 12.2129 15.8972 12.2129 15.8527C12.2129 15.8083 12.2306 15.7656 12.262 15.7342C12.2935 15.7027 12.3361 15.6851 12.3806 15.6851C12.425 15.6851 12.4677 15.7027 12.4991 15.7342L14.323 17.558C14.3465 17.5815 14.3624 17.6114 14.3689 17.6439C14.3754 17.6764 14.3721 17.7101 14.3594 17.7408C14.3467 17.7714 14.3252 17.7976 14.2976 17.816C14.27 17.8345 14.2376 17.8443 14.2044 17.8443Z" fill="#FFB900"/>
<path d="M4.89898 13.3875C4.43735 12.9245 3.92951 12.5101 3.38341 12.1506C2.98946 11.8864 2.58244 11.6422 2.16392 11.4189C2.13233 11.5332 2.10905 11.6497 2.09427 11.7673C1.74589 13.8926 1.92001 15.5822 2.30329 15.9829C2.70398 16.3836 4.41123 16.5577 6.51888 16.1919C6.64083 16.1745 6.76279 16.157 6.86726 16.1396L6.86747 16.1399C6.65741 15.7085 6.41272 15.2949 6.13581 14.903C5.7675 14.3635 5.35372 13.8565 4.89898 13.3875Z" fill="#38C5FF"/>
<path d="M16.2905 1.99472C15.8898 1.61144 14.2002 1.43728 12.075 1.78568C11.9573 1.80052 11.8409 1.8238 11.7266 1.85535C11.9498 2.27388 12.194 2.68088 12.4583 3.0748C12.8222 3.61762 13.2363 4.12504 13.6951 4.59037C14.1744 5.0651 14.6996 5.49106 15.263 5.86199C15.6391 6.12477 16.0351 6.35775 16.4475 6.5588C16.4649 6.45421 16.4824 6.33237 16.4998 6.21039C16.8656 4.10251 16.6915 2.39552 16.2908 1.99486L16.2905 1.99472Z" fill="#38C5FF"/>
<path d="M15.0013 6.95143C14.8901 6.88017 14.7803 6.80769 14.674 6.73286C14.0606 6.3255 13.4887 5.85874 12.9668 5.33932C12.4574 4.82554 11.9967 4.26571 11.5906 3.66697C11.4626 3.47847 11.3384 3.28063 11.2167 3.07955C11.0235 2.76028 10.8383 2.43047 10.6673 2.09912C9.79541 2.34083 8.9499 2.66928 8.14347 3.07955C7.12335 3.59382 6.18843 4.26197 5.37151 5.06057C3.83868 6.61089 2.91527 8.54453 2.41016 10.3563C2.95261 10.6291 3.4764 10.9375 3.97806 11.2796C4.57676 11.6857 5.13655 12.1464 5.65026 12.6558C6.03681 13.0456 6.39411 13.4634 6.71927 13.9057C6.81744 14.0382 6.91444 14.1726 7.0091 14.3107C7.35759 14.8143 7.66627 15.3443 7.93233 15.8959C9.42312 15.4925 10.8268 14.8179 12.073 13.9057C12.4808 13.6037 12.8668 13.2733 13.2281 12.9171C13.9212 12.2113 14.5175 11.4166 15.0013 10.5539C15.5213 9.62918 15.9262 8.64436 16.207 7.62134C15.7922 7.42205 15.3896 7.19836 15.0013 6.95143Z" fill="#009DFF"/>
<path d="M6.90839 11.4002C6.8545 11.3984 6.8023 11.3809 6.7582 11.3499C6.7141 11.3188 6.68002 11.2756 6.66014 11.2255C6.64026 11.1754 6.63544 11.1205 6.64628 11.0677C6.65712 11.0149 6.68314 10.9664 6.72115 10.9281L11.5032 6.11689C11.5549 6.06478 11.6253 6.03539 11.6987 6.03516C11.7722 6.03493 11.8427 6.06389 11.8948 6.11567C11.9469 6.16745 11.9763 6.23781 11.9766 6.31127C11.9768 6.38472 11.9478 6.45526 11.8961 6.50736L7.11405 11.3186C7.08723 11.3456 7.05511 11.3668 7.01973 11.3808C6.98434 11.3949 6.94644 11.4015 6.90839 11.4002Z" fill="#D9F3FF"/>
<path d="M11.7002 8.70032C11.6303 8.69809 11.5638 8.66937 11.5142 8.61998L9.38816 6.5069C9.33615 6.4551 9.30683 6.38477 9.30664 6.31137C9.30645 6.23796 9.33541 6.16749 9.38716 6.11542C9.4389 6.06336 9.5092 6.03396 9.5826 6.03369C9.656 6.03343 9.72651 6.06231 9.77863 6.11399L11.9047 8.22708C11.9441 8.26629 11.9709 8.31649 11.9814 8.37112C11.9919 8.42575 11.9858 8.48228 11.9637 8.53336C11.9416 8.58443 11.9047 8.62767 11.8577 8.65745C11.8107 8.68723 11.7558 8.70217 11.7002 8.70032Z" fill="#D9F3FF"/>
<path d="M10.3578 10.0508C10.2879 10.0485 10.2214 10.0198 10.1718 9.97044L8.04574 7.85736C7.994 7.8055 7.96492 7.73526 7.96484 7.66201C7.96477 7.58875 7.99372 7.51846 8.04536 7.4665C8.09699 7.41454 8.16711 7.38515 8.24036 7.38477C8.31362 7.38439 8.38404 7.41304 8.43621 7.46445L10.5623 9.57753C10.6017 9.61675 10.6285 9.66694 10.639 9.72157C10.6495 9.77621 10.6433 9.83274 10.6213 9.88381C10.5992 9.93489 10.5623 9.97813 10.5153 10.0079C10.4683 10.0377 10.4134 10.0526 10.3578 10.0508Z" fill="#D9F3FF"/>
<path d="M9.01685 11.4017C8.9469 11.3995 8.88041 11.3708 8.83083 11.3214L6.70478 9.20829C6.67898 9.18265 6.65848 9.15218 6.64446 9.11862C6.63044 9.08506 6.62316 9.04906 6.62305 9.01269C6.62294 8.97632 6.62999 8.94028 6.6438 8.90664C6.65762 8.87299 6.67792 8.84239 6.70356 8.81659C6.7292 8.7908 6.75967 8.7703 6.79323 8.75628C6.82679 8.74225 6.86278 8.73498 6.89916 8.73486C6.93553 8.73475 6.97157 8.7418 7.00521 8.75562C7.03886 8.76943 7.06945 8.78974 7.09525 8.81538L9.2213 10.9285C9.26077 10.9677 9.28751 11.0179 9.29803 11.0725C9.30856 11.1271 9.30239 11.1837 9.28032 11.2347C9.25826 11.2858 9.22132 11.3291 9.17433 11.3588C9.12733 11.3886 9.07246 11.4036 9.01685 11.4017Z" fill="#D9F3FF"/>
<path d="M13.6915 4.58999C13.2326 4.12468 12.8185 3.61725 12.4547 3.07442C12.1904 2.6805 11.9462 2.27351 11.7229 1.85498L10.6602 2.09875C10.8312 2.4301 11.0163 2.75991 11.2095 3.07918C11.3312 3.28025 11.4555 3.4781 11.5834 3.6666C11.9895 4.26533 12.4502 4.82517 12.9596 5.33894C13.4816 5.85836 14.0534 6.32513 14.6668 6.73249C14.7731 6.80731 14.8829 6.87979 14.9942 6.95106C15.3825 7.19798 15.7851 7.42167 16.1998 7.62097L16.4439 6.55841C16.0315 6.35735 15.6355 6.12437 15.2594 5.86161C14.6959 5.49067 14.1707 5.06471 13.6915 4.58999Z" fill="#D9F3FF"/>
<path d="M6.71721 13.9058C6.39206 13.4635 6.03475 13.0457 5.6482 12.6559C5.13449 12.1465 4.5747 11.6858 3.976 11.2797C3.47434 10.9376 2.95056 10.6292 2.4081 10.3564L2.16406 11.4192C2.58259 11.6424 2.9896 11.8866 3.38353 12.1508C3.92964 12.5103 4.4375 12.9248 4.89915 13.3877C5.3539 13.8567 5.76769 14.3637 6.13601 14.9033C6.41284 15.295 6.65747 15.7086 6.8675 16.1398L7.93028 15.896C7.66421 15.3444 7.35553 14.8144 7.00704 14.3108C6.91239 14.1727 6.81538 14.0383 6.71721 13.9058Z" fill="#D9F3FF"/>
<g opacity="0.26">
<path d="M6.83473 14.0706C8.52351 11.7316 9.43078 8.91925 9.42719 6.03437C9.42737 4.90307 9.28837 3.77606 9.01331 2.67871C8.72131 2.80177 8.42985 2.93236 8.14128 3.07997C7.12117 3.59424 6.18625 4.26239 5.36933 5.06099C3.8365 6.61131 2.91309 8.54495 2.40797 10.3568C2.41582 10.3607 2.4233 10.3649 2.43105 10.3688C2.42249 10.3646 2.41402 10.361 2.40545 10.3567L2.16141 11.4195L2.16358 11.4207C2.13221 11.5346 2.10904 11.6506 2.09425 11.7678C1.74591 13.8932 1.91999 15.5827 2.30331 15.9834C2.58197 16.2621 3.49384 16.4306 4.73206 16.3846C5.51758 15.6956 6.22258 14.9199 6.83356 14.0723C6.79371 14.0172 6.75486 13.9605 6.71456 13.9061C6.70446 13.8924 6.695 13.8781 6.68499 13.8643C6.69554 13.8784 6.70654 13.8919 6.71708 13.9061C6.75693 13.9599 6.79534 14.016 6.83473 14.0706Z" fill="white"/>
</g>
</g>
<defs>
<clipPath id="clip0_215_64802">
<rect width="18" height="18" fill="white" transform="translate(0.5)"/>
</clipPath>
</defs>
</svg>
