<svg width="24" height="25" viewBox="0 0 24 25" fill="none" xmlns="http://www.w3.org/2000/svg">
<mask id="mask0_215_64824" style="mask-type:alpha" maskUnits="userSpaceOnUse" x="0" y="0" width="24" height="25">
<rect y="0.5" width="24" height="24" fill="#D9D9D9"/>
</mask>
<g mask="url(#mask0_215_64824)">
<path d="M17.7308 20.9998H7.2115V8.99981L13.8462 2.40381L14.6923 3.24981C14.7961 3.35364 14.8823 3.49114 14.951 3.66231C15.0195 3.83348 15.0538 3.99473 15.0538 4.14606V4.39981L13.9923 8.99981H20.6923C21.1679 8.99981 21.5881 9.18223 21.9527 9.54706C22.3176 9.91173 22.5 10.3319 22.5 10.8076V12.4228C22.5 12.5266 22.4865 12.6388 22.4595 12.7593C22.4327 12.8798 22.4026 12.9921 22.3693 13.0961L19.5038 19.8576C19.3603 20.1781 19.1199 20.4486 18.7828 20.6691C18.4456 20.8896 18.0949 20.9998 17.7308 20.9998ZM8.7115 19.4998H17.7308C17.8013 19.4998 17.8733 19.4806 17.947 19.4421C18.0208 19.4036 18.077 19.3395 18.1155 19.2498L21 12.4998V10.8076C21 10.7177 20.9712 10.644 20.9135 10.5863C20.8558 10.5286 20.7821 10.4998 20.6923 10.4998H12.0963L13.35 5.01906L8.7115 9.63831V19.4998ZM7.2115 8.99981V10.4998H4V19.4998H7.2115V20.9998H2.5V8.99981H7.2115Z" fill="#5B5B5B"/>
</g>
</svg>
