<svg width="51" height="50" viewBox="0 0 51 50" fill="none" xmlns="http://www.w3.org/2000/svg">
<rect x="0.5" width="50" height="50" rx="25" fill="#FFE8DC"/>
<path d="M26.5473 18.4857C26.5473 18.4857 26.4994 17.2063 25.0137 16.0217C23.5279 14.8371 21.4191 12.9417 20.6044 11.0937C20.1253 10.007 19.5136 9.69036 19.0909 9.61395C18.946 9.59039 18.7978 9.5959 18.6551 9.63015C18.5124 9.66439 18.3782 9.72667 18.2604 9.81328C17.8199 10.1253 17.1069 10.8747 17.2016 12.4204C17.2295 13.5862 17.5072 14.7329 18.0163 15.7847C18.6637 17.2783 18.831 18.9325 18.4956 20.5232L17.1355 24.4561L12.6981 27.8858C12.6981 27.8858 11.9509 30.8579 19.5979 30.9952C23.9237 31.0728 25.0616 30.5213 25.7326 30.0949C26.4036 29.6684 26.4994 29.1472 26.5474 28.389C26.5953 27.6309 26.5473 18.4857 26.5473 18.4857Z" fill="#38C5FF"/>
<path d="M32.7557 17.416H28.4577C27.0697 17.416 25.9445 18.5285 25.9445 19.9008V27.9619C25.9445 29.3343 27.0697 30.4468 28.4577 30.4468H32.7557C34.1437 30.4468 35.269 29.3343 35.269 27.9619V19.9008C35.269 18.5285 34.1437 17.416 32.7557 17.416Z" fill="#FF5600"/>
<path d="M32.6692 43.0007C33.1696 43.0007 33.5753 42.5996 33.5753 42.1048C33.5753 41.6101 33.1696 41.209 32.6692 41.209C32.1687 41.209 31.7631 41.6101 31.7631 42.1048C31.7631 42.5996 32.1687 43.0007 32.6692 43.0007Z" fill="#69CEFF"/>
<path d="M5.53513 12.2136C6.03556 12.2136 6.44124 11.8125 6.44124 11.3177C6.44124 10.823 6.03556 10.4219 5.53513 10.4219C5.03471 10.4219 4.62903 10.823 4.62903 11.3177C4.62903 11.8125 5.03471 12.2136 5.53513 12.2136Z" fill="#FFB900"/>
<path d="M39.4222 12.534C40.101 12.534 40.6513 11.9899 40.6513 11.3188C40.6513 10.6476 40.101 10.1035 39.4222 10.1035C38.7433 10.1035 38.193 10.6476 38.193 11.3188C38.193 11.9899 38.7433 12.534 39.4222 12.534Z" fill="#FF3C8E"/>
<path d="M28.3262 4.32941L26.9816 3L25.6369 4.32941L26.9816 5.65883L28.3262 4.32941Z" fill="#69CEFF"/>
<path d="M43.3396 27.1907L41.995 25.8613L40.6504 27.1907L41.995 28.5202L43.3396 27.1907Z" fill="#FFB900"/>
<path d="M12.304 35.9857L10.9594 34.6562L9.61471 35.9857L10.9594 37.3151L12.304 35.9857Z" fill="#FFAF69"/>
<path d="M27.1188 39.2503C26.7515 39.2503 26.3925 39.1426 26.0871 38.9409C25.7817 38.7391 25.5436 38.4524 25.4031 38.1169C25.2625 37.7814 25.2257 37.4122 25.2974 37.056C25.3691 36.6998 25.5459 36.3727 25.8057 36.1159C26.0654 35.8591 26.3963 35.6843 26.7565 35.6134C27.1168 35.5426 27.4902 35.5789 27.8295 35.7179C28.1689 35.8569 28.4589 36.0922 28.663 36.3941C28.867 36.6961 28.976 37.0511 28.976 37.4142C28.9754 37.901 28.7795 38.3677 28.4314 38.7119C28.0832 39.0561 27.6112 39.2497 27.1188 39.2503ZM27.1188 35.9157C26.8191 35.9157 26.526 36.0036 26.2768 36.1682C26.0275 36.3329 25.8332 36.5669 25.7185 36.8408C25.6038 37.1146 25.5738 37.4159 25.6323 37.7066C25.6907 37.9973 25.8351 38.2643 26.0471 38.4738C26.2591 38.6834 26.5291 38.8261 26.8231 38.884C27.1172 38.9418 27.4219 38.9121 27.6989 38.7987C27.9758 38.6853 28.2126 38.4932 28.3791 38.2468C28.5456 38.0003 28.6345 37.7106 28.6345 37.4142C28.6341 37.0169 28.4743 36.636 28.1901 36.355C27.906 36.0741 27.5207 35.9161 27.1188 35.9157Z" fill="#FF3C8E"/>
<path d="M6.03139 19.5301C5.72851 19.5301 5.43243 19.4413 5.1806 19.2749C4.92876 19.1085 4.73248 18.8721 4.61657 18.5954C4.50066 18.3188 4.47034 18.0143 4.52943 17.7206C4.58852 17.4269 4.73437 17.1572 4.94854 16.9454C5.16271 16.7337 5.43557 16.5895 5.73264 16.531C6.0297 16.4726 6.33761 16.5026 6.61743 16.6172C6.89726 16.7318 7.13643 16.9259 7.3047 17.1748C7.47297 17.4238 7.56279 17.7166 7.56279 18.016C7.5623 18.4174 7.4008 18.8022 7.11371 19.0861C6.82663 19.3699 6.4374 19.5296 6.03139 19.5301ZM6.03139 16.7803C5.7842 16.7803 5.54255 16.8528 5.33701 16.9886C5.13147 17.1243 4.97127 17.3173 4.87668 17.5431C4.78208 17.7689 4.75733 18.0174 4.80555 18.2571C4.85378 18.4968 4.97281 18.717 5.14761 18.8898C5.32241 19.0626 5.54511 19.1803 5.78756 19.228C6.03001 19.2757 6.28131 19.2512 6.50969 19.1577C6.73808 19.0641 6.93328 18.9057 7.07061 18.7025C7.20795 18.4993 7.28125 18.2604 7.28125 18.016C7.28091 17.6884 7.14912 17.3743 6.9148 17.1426C6.68048 16.9109 6.36277 16.7806 6.03139 16.7803Z" fill="#FF3C8E"/>
<path d="M15.669 30.4461H18.1564C18.6703 30.4465 19.1767 30.324 19.6323 30.089C20.088 29.8541 20.4794 29.5137 20.7732 29.0968C20.891 28.9273 20.9597 28.7292 20.9719 28.5239C20.984 28.3186 20.9391 28.1139 20.8421 27.932C20.7451 27.75 20.5996 27.5978 20.4214 27.4917C20.2432 27.3856 20.039 27.3297 19.831 27.3301H12.4777C12.4883 28.16 12.8293 28.9524 13.4266 29.5356C14.0239 30.1188 14.8295 30.4459 15.669 30.4461Z" fill="#85D8FF"/>
<path d="M18.1562 18.0449H15.6689C14.8497 18.0451 14.0619 18.3566 13.4686 18.915C12.8752 19.4734 12.5217 20.2359 12.4811 21.0448C12.4806 21.0599 12.4832 21.0749 12.4887 21.0889C12.4941 21.103 12.5024 21.1158 12.513 21.1266C12.5235 21.1375 12.5362 21.1461 12.5502 21.152C12.5642 21.1579 12.5793 21.161 12.5945 21.161H20.0379C20.2182 21.1607 20.3953 21.1135 20.5514 21.0242C20.7076 20.9349 20.8372 20.8067 20.9274 20.6522C21.0175 20.4978 21.0651 20.3227 21.0652 20.1444C21.0654 19.966 21.0181 19.7908 20.9282 19.6362C20.6494 19.1527 20.246 18.7508 19.7591 18.4713C19.2722 18.1918 18.7192 18.0447 18.1562 18.0449Z" fill="#85D8FF"/>
<path d="M12.4766 21.5V26.9944H20.0468C20.3927 26.9944 20.7244 26.8586 20.9689 26.6168C21.2134 26.375 21.3508 26.0471 21.3508 25.7052C21.3508 25.5359 21.3171 25.3683 21.2516 25.2118C21.186 25.0554 21.09 24.9133 20.9689 24.7936C20.8478 24.6739 20.7041 24.5789 20.5459 24.5141C20.3877 24.4493 20.2181 24.416 20.0468 24.416H12.4766V24.0784H20.1521C20.3095 24.0784 20.4654 24.0478 20.6108 23.9882C20.7563 23.9287 20.8884 23.8414 20.9997 23.7313C21.111 23.6212 21.1993 23.4906 21.2596 23.3468C21.3198 23.203 21.3508 23.0489 21.3508 22.8932V22.6852C21.3508 22.5295 21.3198 22.3754 21.2596 22.2316C21.1993 22.0878 21.111 21.9572 20.9997 21.8471C20.8884 21.7371 20.7563 21.6498 20.6108 21.5902C20.4654 21.5307 20.3095 21.5 20.1521 21.5H12.4766Z" fill="#85D8FF"/>
<path d="M12.4766 21.1602V21.2015C12.4766 21.1875 12.4785 21.1741 12.4786 21.1602H12.4766Z" fill="#38C5FF"/>
<path d="M21.3508 21.4977V21.2014C21.3508 21.1875 21.3489 21.1741 21.3487 21.1602H12.4786C12.4784 21.1739 12.4766 21.1872 12.4766 21.201V21.4977L21.3508 21.4977Z" fill="#38C5FF"/>
<path d="M21.3508 24.0762H12.4766V24.4137H21.3508V24.0762Z" fill="#38C5FF"/>
<path d="M12.4766 27.3304H12.4786C12.4784 27.3165 12.4766 27.303 12.4766 27.2891V27.3304Z" fill="#38C5FF"/>
<path d="M12.4766 27.2889C12.4766 27.3027 12.4785 27.316 12.4786 27.3297H21.3487C21.3489 27.3158 21.3508 27.3024 21.3508 27.2884V26.9922H12.4766V27.2889Z" fill="#38C5FF"/>
</svg>
